<?xml version="1.0" encoding="UTF-8"?> <!-- Generator: Adobe Illustrator 23.0.1, SVG Export Plug-In . SVG Version: 6.00 Build 0) --> <svg xmlns="http://www.w3.org/2000/svg" xmlns:xlink="http://www.w3.org/1999/xlink" x="0px" y="0px" viewBox="0 0 1443 984" style="enable-background:new 0 0 1443 984;" xml:space="preserve"> <style type="text/css"> .st0{display:none;} .st1{fill:#FCCD26;} .st2{fill:none;stroke:#F6A218;stroke-width:3;stroke-linecap:round;stroke-linejoin:round;stroke-miterlimit:10;stroke-dasharray:8;} .st3{fill:#DCEAFF;} .st4{fill:#FFFFDE;} .st5{fill:#F9F9F9;} .st6{fill:none;stroke:#D8D8D8;stroke-width:11;stroke-linecap:round;stroke-linejoin:round;stroke-miterlimit:10;} .st7{fill:#86CDFC;} .st8{fill:#DEE1FF;} .st9{fill:none;stroke:#EFEFEF;stroke-width:3;stroke-linecap:round;stroke-linejoin:round;stroke-miterlimit:10;} .st10{fill:#FFFFFF;} .st11{fill:none;stroke:#FCCD26;stroke-width:4;stroke-linecap:round;stroke-linejoin:round;} .st12{fill:none;stroke:#FCCD26;stroke-width:4;stroke-linecap:round;stroke-linejoin:round;stroke-dasharray:11.8824,11.8824;} .st13{fill:none;stroke:#F99528;stroke-width:4;stroke-linecap:round;stroke-linejoin:round;} .st14{fill:none;stroke:#F99528;stroke-width:4;stroke-linecap:round;stroke-linejoin:round;stroke-dasharray:11.8824,11.8824;} .st15{fill:#F99528;} .st16{fill:#F6A218;} .st17{fill:#FFE73B;} .st18{fill:#FFF0A4;} .st19{font-family:'ProximaNova-Black';} .st20{font-size:72.8985px;} .st21{opacity:0.34;} .st22{font-family:'AFuturicaExtraBold';} .st23{font-size:120.2569px;} .st24{font-size:96.9054px;} .st25{fill:#EFEFEF;} .st26{fill:#050038;} .st27{fill:#11016B;} .st28{clip-path:url(#SVGID_2_);fill:#190082;} .st29{clip-path:url(#SVGID_2_);fill:#0E0060;} .st30{clip-path:url(#SVGID_4_);fill:#3FA9F5;} .st31{clip-path:url(#SVGID_4_);fill:#2089C9;} .st32{fill:#EFC0A6;} .st33{fill:#CB7164;} .st34{fill:#471F1B;} .st35{opacity:0.76;fill:#EFC0A6;} .st36{opacity:0.4;clip-path:url(#SVGID_6_);fill:#CB7164;} .st37{opacity:0.85;clip-path:url(#SVGID_8_);fill:#CB7164;} .st38{fill:none;stroke:#C24C3F;stroke-width:0.75;stroke-linecap:round;stroke-linejoin:round;stroke-miterlimit:10;} .st39{fill:none;stroke:#59201C;stroke-linecap:round;stroke-linejoin:round;stroke-miterlimit:10;} .st40{fill:#190B04;} .st41{fill:#F09688;} .st42{clip-path:url(#SVGID_10_);fill:#F09688;} .st43{fill:none;stroke:#0E5A89;stroke-width:0.75;stroke-linecap:round;stroke-linejoin:round;stroke-miterlimit:10;} .st44{fill:#2089C9;} .st45{fill:#9B9B9B;} .st46{fill:#6B6B6B;} .st47{fill:#C1C1C1;} .st48{fill:#474747;} .st49{fill:#1F1B35;} .st50{clip-path:url(#SVGID_12_);fill:#EFC0A6;} .st51{opacity:0.85;clip-path:url(#SVGID_12_);fill:#CB7164;} .st52{fill:#39374C;} .st53{fill:none;stroke:#1F1B35;stroke-width:0.75;stroke-linecap:round;stroke-linejoin:round;stroke-miterlimit:10;} .st54{fill:#3FA9F5;} .st55{fill:none;stroke:#FFFFFF;stroke-width:5;stroke-linecap:round;stroke-linejoin:round;stroke-miterlimit:10;} .st56{fill:none;stroke:#FFFFFF;stroke-width:2;stroke-linecap:round;stroke-linejoin:round;stroke-miterlimit:10;} .st57{fill:#A9C4FF;} .st58{fill:#CAEBFF;} .st59{fill:#CACDFC;} .st60{fill:#4B6CCA;} .st61{fill:#D243E4;} .st62{fill:#D3D3D3;} .st63{fill:#8CCBEA;} .st64{fill:#DEF4FC;} .st65{fill:#FFAF5F;} .st66{fill:#FFFEDC;} .st67{fill:#B6CCFC;} .st68{fill:#52C5FF;} .st69{fill:#458AFF;} .st70{fill:#FFF8E9;} .st71{fill:#FFEDC6;} .st72{fill:none;stroke:#F9E09E;stroke-width:6;stroke-linecap:round;stroke-linejoin:round;stroke-miterlimit:10;} .st73{fill:none;stroke:#F9E09E;stroke-width:3;stroke-linecap:round;stroke-linejoin:round;stroke-miterlimit:10;} .st74{fill:none;stroke:#FF9416;stroke-linecap:round;stroke-linejoin:round;stroke-miterlimit:10;} .st75{fill:#FDD239;} .st76{fill:#7568DE;} .st77{fill:#FFECCA;} .st78{fill:#FDBF00;} .st79{fill:#85B7FF;} .st80{fill:none;stroke:#D8D8D8;stroke-width:2;stroke-linecap:round;stroke-linejoin:round;stroke-miterlimit:10;} .st81{opacity:0.84;} .st82{fill:#7FACE2;} .st83{opacity:0.84;fill:#7FACE2;} .st84{fill:#7EBEFC;} .st85{clip-path:url(#SVGID_14_);fill:#F6A218;} .st86{clip-path:url(#SVGID_14_);fill:#FFFFFF;} .st87{clip-path:url(#SVGID_14_);fill:#C6790A;} .st88{clip-path:url(#SVGID_16_);fill:#F6A218;} .st89{clip-path:url(#SVGID_16_);fill:none;stroke:#C6790A;stroke-width:0.75;stroke-linecap:round;stroke-linejoin:round;stroke-miterlimit:10;} .st90{clip-path:url(#SVGID_16_);fill:#FFFFFF;} .st91{clip-path:url(#SVGID_16_);fill:none;stroke:#C6790A;stroke-width:0.5;stroke-linecap:round;stroke-linejoin:round;stroke-miterlimit:10;} .st92{fill:#C6790A;} .st93{clip-path:url(#SVGID_18_);fill:#F6A218;} .st94{clip-path:url(#SVGID_18_);fill:#FFFFFF;} .st95{fill:none;stroke:#C6790A;stroke-width:0.5;stroke-linecap:round;stroke-linejoin:round;stroke-miterlimit:10;} .st96{fill:none;stroke:#000000;stroke-linecap:round;stroke-linejoin:round;stroke-miterlimit:10;} .st97{fill:none;stroke:#FCD2A7;stroke-width:0.75;stroke-linecap:round;stroke-linejoin:round;stroke-miterlimit:10;} .st98{fill:none;stroke:#C6790A;stroke-width:0.75;stroke-linecap:round;stroke-linejoin:round;stroke-miterlimit:10;} .st99{clip-path:url(#SVGID_20_);fill:#F6A218;} .st100{clip-path:url(#SVGID_20_);fill:#FFFFFF;} .st101{clip-path:url(#SVGID_20_);fill:#C6790A;} .st102{clip-path:url(#SVGID_22_);fill:#F6A218;} .st103{clip-path:url(#SVGID_22_);fill:none;stroke:#C6790A;stroke-width:0.75;stroke-linecap:round;stroke-linejoin:round;stroke-miterlimit:10;} .st104{clip-path:url(#SVGID_22_);fill:#FFFFFF;} .st105{clip-path:url(#SVGID_22_);fill:none;stroke:#C6790A;stroke-width:0.5;stroke-linecap:round;stroke-linejoin:round;stroke-miterlimit:10;} .st106{clip-path:url(#SVGID_24_);fill:#F6A218;} .st107{clip-path:url(#SVGID_24_);fill:#FFFFFF;} </style> <g id="Layer_1" class="st0"> </g> <g id="Layer_8"> <path class="st2" d="M81,463c0,0-23-441,266-371s-195.41,542.2-34.5,721.5c140,156,324.06,36.2,360.5-46.5 c62.38-141.57,37.5-605.5,384.5-522.5s221,421,186,496"></path> <path class="st3" d="M878.27,694.07H231.85c-19.25,0-34.85-15.6-34.85-34.85V274.97c0-19.25,15.6-34.85,34.85-34.85h646.42 c19.25,0,34.85,15.6,34.85,34.85v384.24C913.12,678.46,897.52,694.07,878.27,694.07z"></path> <path class="st4" d="M870.92,678.82H239.14c-11.26,0-20.39-9.13-20.39-20.39V306.27c0-11.26,9.13-20.39,20.39-20.39h631.78 c11.26,0,20.39,9.13,20.39,20.39v352.15C891.32,669.69,882.19,678.82,870.92,678.82z"></path> <path class="st5" d="M869.15,328.73H241.64c-6.6,0-12-5.4-12-12v-4.33c0-6.6,5.4-12,12-12h627.51c6.6,0,12,5.4,12,12v4.33 C881.15,323.33,875.75,328.73,869.15,328.73z"></path> <line class="st6" x1="302.47" y1="314.57" x2="386.72" y2="314.57"></line> <line class="st6" x1="413.23" y1="313.89" x2="459" y2="313.89"></line> <path class="st7" d="M560.26,570.5H270.24c-11.46,0-20.74-9.29-20.74-20.74V386.24c0-11.46,9.29-20.74,20.74-20.74h290.01 c11.46,0,20.74,9.29,20.74,20.74v163.51C581,561.21,571.71,570.5,560.26,570.5z"></path> <circle class="st8" cx="402.34" cy="462.35" r="54.03"></circle> <line class="st9" x1="318" y1="467" x2="353" y2="467"></line> <line class="st9" x1="378.5" y1="467.5" x2="413.5" y2="467.5"></line> <line class="st9" x1="440.5" y1="467.5" x2="475.5" y2="467.5"></line> <circle class="st10" cx="836.5" cy="263.5" r="10"></circle> <g> <g> <line class="st11" x1="280" y1="722" x2="286" y2="722"></line> <line class="st12" x1="297.88" y1="722" x2="482.06" y2="722"></line> <line class="st11" x1="488" y1="722" x2="494" y2="722"></line> </g> </g> <g> <g> <line class="st13" x1="453" y1="201" x2="459" y2="201"></line> <line class="st14" x1="470.88" y1="201" x2="655.06" y2="201"></line> <line class="st13" x1="661" y1="201" x2="667" y2="201"></line> </g> </g> <polygon class="st15" points="443.3,218.6 428.47,209.6 413.64,200.6 428.85,192.26 444.06,183.92 443.68,201.26 "></polygon> <polygon class="st1" points="482.52,739.34 482.25,722 481.97,704.66 497.12,713.09 512.28,721.51 497.4,730.43 "></polygon> <path class="st10" d="M860.88,671H701.12c-14.98,0-27.12-12.14-27.12-27.12V384.12c0-14.98,12.14-27.12,27.12-27.12h159.77 c14.98,0,27.12,12.14,27.12,27.12v259.77C888,658.86,875.86,671,860.88,671z"></path> <path class="st16" d="M1191.34,716.32l-19.89,115.37c-0.55,3.2,2.57,5.79,5.61,4.67l109.86-40.46c3.05-1.12,3.73-5.12,1.24-7.2 l-89.97-74.91C1195.7,711.72,1191.89,713.12,1191.34,716.32z"></path> <circle class="st16" cx="86.5" cy="482.5" r="13.5"></circle> <circle class="st17" cx="1056" cy="586" r="181"></circle> <circle class="st17" cx="1217.5" cy="320.5" r="30.5"></circle> <g> <text transform="matrix(1 0 0 1 1198 347.9287)" class="st18 st19 st20">+</text> </g> <g class="st21"> <text transform="matrix(0.8355 -0.5496 0.5496 0.8355 1014.2565 906.6761)" class="st18 st22 st23">&lt;</text> </g> <g class="st21"> <text transform="matrix(-0.7241 0.6897 -0.6897 -0.7241 515.0815 40.1331)" class="st18 st22 st24">&lt;</text> </g> <circle class="st25" cx="335" cy="544" r="6"></circle> <circle class="st25" cx="396" cy="545" r="6"></circle> <circle class="st25" cx="458" cy="545" r="6"></circle> </g> <g id="Layer_2"> <g> <path class="st26" d="M842.16,932.8l-18.57,34.04c0,0,35.59,4.64,58.8-4.64c23.21-9.28,38.69-27.85,38.69-27.85l-4.64-15.47 L842.16,932.8z"></path> <path class="st26" d="M675.12,948.28h113.44c0.59,0,1.09-0.4,1.2-0.96l2.86-15.09c0.11-0.56-0.22-1.11-0.78-1.31l-69.31-24.19 c-0.42-0.15-0.88-0.06-1.22,0.22l-46.99,39.27C673.47,946.93,673.99,948.28,675.12,948.28z"></path> <path class="st27" d="M879.3,711.52c0,0-37.14,6.19-55.71,10.83c-18.57,4.64-56.06,8.95-63.38,20.57 C752.62,755,712.6,909.8,712.6,909.8s14.9,8.37,39.54,17.71c24.64,9.34,42.56,7.19,42.56,7.19l15-135.71 c0,0,24.67-43.9,60.31-36.41c35.64,7.49,49.52-10.83,49.52-10.83l13.93-13.93L879.3,711.52z"></path> <g> <defs> <path id="SVGID_1_" d="M914.89,728.54c0,0-30.95,0-49.52,4.64c-15.72,3.93-50.69,17.35-52.61,30.95 c-2,14.13,24.76,171.76,24.76,171.76s17.02,1.55,43.33,0c26.31-1.55,41.78-10.83,41.78-10.83l-41.78-129.98 c0,0,30.95-3.09,66.54-10.83c35.59-7.74,49.52-46.42,49.52-46.42v-18.57L914.89,728.54z"></path> </defs> <clipPath id="SVGID_2_"> <use xlink:href="#SVGID_1_" style="overflow:visible;"></use> </clipPath> <path class="st28" d="M914.89,728.54c0,0-30.95,0-49.52,4.64c-15.72,3.93-50.69,17.35-52.61,30.95 c-2,14.13,24.76,171.76,24.76,171.76s17.02,1.55,43.33,0c26.31-1.55,41.78-10.83,41.78-10.83l-41.78-129.98 c0,0,30.95-3.09,66.54-10.83c35.59-7.74,49.52-46.42,49.52-46.42v-18.57L914.89,728.54z"></path> <path class="st29" d="M970.59,708.43c0,0,1.55,43.33-20.12,54.16s-85.11,18.57-85.11,18.57l34.04,159.38l47.97-6.19l-3.09-106.77 l52.61-34.04l17.02-46.42l-9.28-26.31L970.59,708.43z"></path> </g> <g> <defs> <path id="SVGID_3_" d="M860.73,720.81c5.48-30.99,5.46-52.06,9.28-69.63c7.74-35.59,13.12-51.07,20.12-71.18 c3.22-9.26,6.62-14.39,12.38-18.57c6.72-4.88,11.64-5.53,20.12-7.74c26.22-6.83,47.07-9.07,66.54,15.47 c35.59,44.87,102.52,105.98,82.01,140.81c-6.2,10.53-12.07,17.24-29.4,23.21c-29.23,10.06-57.02,3.68-133.08-6.19 C886.71,724.14,869.37,721.92,860.73,720.81z"></path> </defs> <clipPath id="SVGID_4_"> <use xlink:href="#SVGID_3_" style="overflow:visible;"></use> </clipPath> <path class="st30" d="M862.27,720.81c5.48-30.99,5.46-52.06,9.28-69.63c7.74-35.59,12.84-51.17,20.12-71.18 c3.39-9.34,6.58-14.7,12.38-18.57c0.6-0.4,1.22-0.78,1.88-1.15c4.6-2.58,10.69-4.51,18.23-6.59 c26.13-7.18,47.07-9.07,66.54,15.47c35.59,44.87,102.52,105.98,82.01,140.81c-6.2,10.53-10.52,17.24-27.85,23.21 c-29.23,10.06-58.56,3.68-134.62-6.19C888.26,724.14,870.92,721.92,862.27,720.81z"></path> <path class="st31" d="M927.27,561.42c0,0,17.02-4.64,23.21-6.19c6.71-1.68,18.69,6.52,23.21,10.83 c19.38,18.47,51.99,64.67,64.99,85.11c10.83,17.02,20.12,30.95,20.12,40.23s-9.28,27.85-34.04,32.5 c-11.07,2.08-75.82,1.55-95.94-1.55l-4.64,1.55h-6.19l-4.64,4.64l134.62,24.76l64.99-54.16l-40.23-88.2l-51.06-43.33 l-26.31-18.57l-21.66-7.74h-20.12L927.27,561.42z"></path> </g> <path class="st32" d="M914.89,545.95c0,0,4.64,9.28,4.64,13.93c0,6.19,20.12,1.55,30.95-10.83l-9.28-18.57L914.89,545.95z"></path> <polygon class="st33" points="914.89,545.95 946.96,552.62 950.48,549.04 941.19,530.48 "></polygon> <path class="st34" d="M757.05,304.55c-1.65,2.56-19.97,33.73-6.19,64.99c1.93,4.37,10.35,22.3,29.4,29.4 c9.37,3.49,27.01,0.31,61.9-6.19c18.69-3.48,25.89-5.34,37.14-3.09c13.19,2.63,25.77,9.65,27.85,10.83 c13.15,7.45,15.33,12.48,24.76,13.93c11.38,1.74,12.38-1.55,12.38-1.55s0.29,0.19-4.64,4.64c-6.57,5.94-7.93,27.11,7.74,66.54 c0,0,4.64-18.57,17.02-24.76c12.38-6.19,26.31-4.64,26.31-4.64s10.83-9.28,9.28-30.95s-10.83-24.76-10.83-24.76 s27.85-12.38,32.5-13.93c4.64-1.55,9.28-4.64,7.74-6.19c-1.55-1.55-29.4,0-43.33,9.28c0,0,15.47-15.47,18.57-40.23 c0-13.93-6.19,0-6.19,0s-12.38,29.4-20.12,35.59c0,0-3.09-20.12-10.83-32.5c-7.74-12.38-18.45-31.74-47.97-35.59 c-35.59-4.64-81.17,16.41-103.68,15.47C778.71,329.31,757.05,304.55,757.05,304.55z"></path> <path class="st32" d="M958.21,460.84c-9.02,9.92-10.94,15.37-11.16,18.01c-1.18-7.5-4.97-33.16-4.32-44.32 c0.93-15.75,6.19-21.66,6.19-21.66s-7.74,1.55-18.57-3.09c-7.26-3.11-23.21-17.02-44.87-21.66c-21.66-4.64-57.76,2.26-72.73,6.19 c-15.54,4.07-34.07,3.47-34.04,1.55c0,0-27.08,82.79,25.53,133.85c52.61,51.06,117.6,15.47,133.08,6.19 c15.47-9.28,30.17-33.27,30.17-33.27s14.19,3.53,24.76,0c9.28-3.09,13.93-10.83,15.47-23.21 C1011.15,452.01,973.69,443.82,958.21,460.84z M947.06,478.9c0.2,1.32,0.32,2.06,0.32,2.06S946.95,480.37,947.06,478.9z"></path> <path class="st35" d="M947.38,480.96c0,0-0.43-0.59-0.32-2.06C947.26,480.22,947.38,480.96,947.38,480.96z"></path> <g> <defs> <path id="SVGID_5_" d="M778.71,395.85c0,0-27.08,82.79,25.53,133.85c52.61,51.06,117.6,15.47,133.08,6.19 c15.47-9.28,30.17-33.27,30.17-33.27s14.19,3.52,24.76,0c9.28-3.09,13.93-10.83,15.47-23.21c3.43-27.4-34.04-35.59-49.52-18.57 c-14.16,15.57-10.83,20.12-10.83,20.12s-5.42-33.27-4.64-46.42c0.93-15.75,6.19-21.66,6.19-21.66s-7.74,1.55-18.57-3.09 c-7.25-3.11-23.21-17.02-44.87-21.66c-21.66-4.64-57.76,2.27-72.73,6.19C797.22,398.38,778.69,397.78,778.71,395.85z"></path> </defs> <clipPath id="SVGID_6_"> <use xlink:href="#SVGID_5_" style="overflow:visible;"></use> </clipPath> <path class="st36" d="M778.71,397.4c6.19,1.55,14.84,2.93,18.57,3.09c17.2,0.77,31.83-2.58,44.87-4.64 c29.4-4.64,52.61-3.09,68.09,10.83c5.3,4.77,9.64,9.05,18.57,10.83c7.74,1.55,13.93,0,13.93,0s-6.26,8.94-7.74,18.57 c-3.09,20.12,12.38,45.52,12.38,43.33c0-6.19-1.57-8.4,1.55-23.21c3.84-18.26,5.76-19.65,6.19-32.5 c0.5-14.91,0.76-22.36-1.55-27.85c-11.22-26.76-68.32-28.41-100.58-24.76C814.9,375.4,772.34,395.8,778.71,397.4z"></path> </g> <g> <defs> <path id="SVGID_7_" d="M778.71,395.85c0,0-27.08,82.79,25.53,133.85c52.61,51.06,117.6,15.47,133.08,6.19 c15.47-9.28,30.17-33.27,30.17-33.27s14.19,3.52,24.76,0c9.28-3.09,13.93-10.83,15.47-23.21c3.43-27.4-34.04-35.59-49.52-18.57 c-14.16,15.57-10.83,20.12-10.83,20.12s-5.42-33.27-4.64-46.42c0.93-15.75,6.19-21.66,6.19-21.66s-7.74,1.55-18.57-3.09 c-7.25-3.11-23.21-17.02-44.87-21.66c-21.66-4.64-57.76,2.27-72.73,6.19C797.22,398.38,778.69,397.78,778.71,395.85z"></path> </defs> <clipPath id="SVGID_8_"> <use xlink:href="#SVGID_7_" style="overflow:visible;"></use> </clipPath> <path class="st37" d="M827.84,546.85c0,0,17.45,7.27,42.17,5.29c11.03-0.88,41.53-4.04,68.54-27.43 c12.44-10.77,20.01-22.21,24.3-29.82c6.27,4.17,11.75,5.26,15.47,6.19c6.19,1.55,17.02,0,17.02,0l-12.38,9.28l-23.21,6.19 l-10.83,23.21l-61.9,20.12l-57.25-1.55L827.84,546.85z"></path> </g> <path class="st38" d="M965.95,477.86c0,0,6.96-11.61,18.57-12.38c7.72-0.51,12.38,1.55,12.38,1.55"></path> <path class="st38" d="M971.3,471.59c0,0,9.35,0.86,9.35,7.05c0,4.64-4.64,7.74-4.64,7.74"></path> <path class="st39" d="M861.5,506.49c0,0,7.74,0,13.93-7.74c2.73-3.42,5.42-11.61,5.42-11.61"></path> <ellipse transform="matrix(0.9833 -0.182 0.182 0.9833 -66.9606 165.4901)" class="st40" cx="868.46" cy="447.69" rx="6.96" ry="10.83"></ellipse> <ellipse transform="matrix(0.9833 -0.182 0.182 0.9833 -69.0709 151.7716)" class="st40" cx="792.64" cy="452.33" rx="6.96" ry="10.83"></ellipse> <ellipse transform="matrix(0.9984 -0.0574 0.0574 0.9984 -25.3659 51.8238)" class="st41" cx="890.13" cy="467.81" rx="23.21" ry="10.06"></ellipse> <g> <defs> <path id="SVGID_9_" d="M958.21,460.84c-9.02,9.92-10.94,15.37-11.16,18.01c-1.18-7.5-4.97-33.16-4.32-44.32 c0.93-15.75,6.19-21.66,6.19-21.66s-7.74,1.55-18.57-3.09c-7.26-3.11-23.21-17.02-44.87-21.66 c-21.66-4.64-57.76,2.26-72.73,6.19c-15.54,4.07-34.07,3.47-34.04,1.55c0,0-27.08,82.79,25.53,133.85 c52.61,51.06,117.6,15.47,133.08,6.19c15.47-9.28,30.17-33.27,30.17-33.27s14.19,3.53,24.76,0 c9.28-3.09,13.93-10.83,15.47-23.21C1011.15,452.01,973.69,443.82,958.21,460.84z M947.06,478.9c0.2,1.32,0.32,2.06,0.32,2.06 S946.95,480.37,947.06,478.9z"></path> </defs> <clipPath id="SVGID_10_"> <use xlink:href="#SVGID_9_" style="overflow:visible;"></use> </clipPath> <ellipse transform="matrix(0.9984 -0.0574 0.0574 0.9984 -26.0793 45.5377)" class="st42" cx="780.26" cy="477.09" rx="23.21" ry="10.06"></ellipse> </g> <path class="st34" d="M854.54,406.68c6.19-1.55,21.21-0.72,26.31,1.55c13.93,6.19,18.57,18.57,15.47,20.12 c-3.09,1.55-12.38-6.19-20.12-9.28c-7.74-3.09-12.38-3.09-20.12-4.64C853.05,413.81,852.99,407.07,854.54,406.68z"></path> <path class="st34" d="M801.84,408.23c-6.19-1.55-21.21-0.72-26.31,1.55c-13.93,6.19-18.57,18.57-15.47,20.12 c3.09,1.55,12.38-6.19,20.12-9.28s12.38-3.09,20.12-4.64C803.33,415.36,803.39,408.62,801.84,408.23z"></path> <path class="st41" d="M828.23,446.92c1.36-2.29-12.23,19.87-6.19,29.4c8.8,13.9,21.66,3.09,20.12-1.55 c-1.38-4.15-10.83,4.64-13.93-1.55S828.23,446.92,828.23,446.92z"></path> <path class="st38" d="M827.46,447.69c-7.09,12.5-9.2,21.45-6.96,27.08c1.14,2.88,3.09,4.64,3.09,4.64 c0.46,0.44,4.04,3.68,9.28,3.09c6.96-0.77,9.64-6.38,10.06-6.96"></path> <path class="st43" d="M969.82,562.2c0,0-3.87,3.87-3.87,19.34c0,15.47,19.34,85.88,19.34,85.88"></path> <path class="st43" d="M1019.34,667.42c0,0-12.38-3.09-26.31-1.55c-16.95,1.88-59.63,23.36-71.18,34.04c0,0-4.64-4.64-7.74-3.09 c-3.09,1.55-3.09,4.64-3.09,4.64"></path> <path class="st43" d="M998.71,665.48c0,0,8.25,0.39,12.89,3.49c4.64,3.09,7.74,7.74,7.74,7.74"></path> <path class="st44" d="M902.51,562.97c0.52-0.52,1.03-1.03,1.55-1.55c0,0-2.73,1.36-3.09,1.55c-3.19,1.63-4.64,3.09-7.74,7.74 c-7.91,11.87-17.28,20.22-38.69,60.35c-13.39,25.1-23.21,51.06-23.21,51.06s-15.47-3.09-38.69,6.19 c-23.21,9.28-43.33,20.12-43.33,20.12l4.64,21.66l108.32-6.19c0,0,9.53-62.46,13.93-83.56c0,0,4.31-33.95,21.66-69.63 c0.43-0.98,0.94-2.02,1.55-3.09C900.42,565.81,901.49,564.27,902.51,562.97z"></path> <polygon class="st45" points="882.39,730.09 749.31,739.38 747.77,723.9 862.27,723.9 "></polygon> <path class="st46" d="M774.62,723.9H540.88l-92.84-161.51c-1.83-3.18,0.47-7.16,4.14-7.16h222.72c1.71,0,3.29,0.91,4.14,2.4 L774.62,723.9z"></path> <polygon class="st46" points="449.12,556.78 443.5,562.12 453.76,562.97 453.76,558.33 "></polygon> <path class="st47" d="M768.43,730.09H534.69l-92.84-161.51c-1.83-3.18,0.47-7.16,4.14-7.16h222.72c1.71,0,3.29,0.91,4.14,2.4 L768.43,730.09z"></path> <path class="st48" d="M884.71,739.38H530.35c-1.28,0-2.32-1.04-2.32-2.32v-4.65c0-1.28,1.04-2.32,2.32-2.32h354.36 c1.28,0,2.32,1.04,2.32,2.32v4.65C887.03,738.34,885.99,739.38,884.71,739.38z"></path> <path class="st49" d="M840.61,734.73h55.64c0,0,1.74-26.44-12.17-26.31S840.61,734.73,840.61,734.73z"></path> <path class="st44" d="M911.79,703.79v4.64l2.78-0.4c0,0,0.69-1.48-1.04-2.86C911.79,703.79,911.79,703.79,911.79,703.79z"></path> <g> <defs> <path id="SVGID_11_" d="M914.89,706.88c-1.38-0.69-18.57,4.64-18.57,4.64s-10.83-7.74-23.21-6.19 c-7.71,0.96-18.62,9.16-23.62,13.22c-1.17,0.95-0.79,2.81,0.65,3.22c1.01,0.29,9.26-5.97,10.59-5.61 c0.9,0.25-5.19,7.1-4.19,7.37c0.94,0.25,1.92,0.51,2.93,0.78c3.47,0.91,11.81,2.39,13.64,2.68c1.82,0.29,7.06-7.14,7.74-6.19 c7.74,10.83,18.57,3.09,18.57,3.09l18.57,1.55C917.98,725.45,917.98,708.43,914.89,706.88z"></path> </defs> <clipPath id="SVGID_12_"> <use xlink:href="#SVGID_11_" style="overflow:visible;"></use> </clipPath> <path class="st50" d="M914.89,706.88c-1.38-0.69-18.57,4.64-18.57,4.64s-10.83-7.74-23.21-6.19 c-7.71,0.96-18.62,9.16-23.62,13.22c-1.17,0.95-0.79,2.81,0.65,3.22c1.01,0.29,9.26-5.97,10.59-5.61c0.9,0.25-5.19,7.1-4.19,7.37 c0.94,0.25,1.92,0.51,2.93,0.78c3.47,0.91,11.81,2.39,13.64,2.68c1.82,0.29,7.06-7.14,7.74-6.19 c7.74,10.83,18.57,3.09,18.57,3.09l18.57,1.55C917.98,725.45,917.98,708.43,914.89,706.88z"></path> <path class="st51" d="M921.08,720.81h-21.66c0,0-3.09,3.09-7.74,3.09c-4.64,0-10.83-4.64-10.83-4.64s-1.55,1.55-4.64,4.64 c-3.09,3.09-4.25,3.1-4.25,3.1l4.25,1.54h12.38h17.02l10.83,1.55l4.64-4.64V720.81z"></path> </g> <path class="st52" d="M898.91,736.28h-59.35c-0.28,0-0.5-0.22-0.5-0.5v-0.55c0-0.27,0.22-0.5,0.5-0.5h59.35 c0.28,0,0.5,0.23,0.5,0.5v0.55C899.41,736.06,899.19,736.28,898.91,736.28z"></path> <path class="st53" d="M846.03,732.41c-7.69-10.74-13.61-33.09-30.17-31.72c-11.11,0.92-17.94,9.63-27.85,20.12 c-19.05,20.15-40.21,42.54-60.35,49.52c-42.17,14.62-87.95-35.5-103.68-20.12c-8.47,8.29,1.19,26.36-7.74,32.5 c-9.14,6.28-28.22-1.86-38.69-13.93c-11.51-13.27-11.09-29.55-10.83-34.04"></path> <circle class="st49" cx="566.72" cy="734.73" r="1.55"></circle> <path class="st54" d="M912.57,701.46c0,0,3.09,6.19,3.09,10.83s-1.55,15.47-1.55,15.47s1.22,2.61,4.64,3.09 c5.42,0.77,10.06-6.96,10.06-8.51c0-1.55-5.42-14.7-5.42-14.7l-4.64-6.19H912.57"></path> <path class="st55" d="M956.67,561.42c0,0-15.47,10.83-12.38,52.61c3.09,41.78,6.19,57.25,6.19,57.25"></path> <path class="st56" d="M908.7,566.07c0,0-7.74,13.93-10.83,27.85c-3.09,13.93-7.74,80.47-7.74,80.47"></path> </g> </g> <g id="Layer_4"> </g> <g id="Layer_5"> </g> <g id="Layer_6"> </g> <g id="Layer_7"> </g> <g id="Layer_3"> <g> <g> <defs> <path id="SVGID_13_" d="M182.97,706.37c0,0-5.27,1.64-10.46-0.21c-5.2-1.85-18.94-12.6-20.51-21.35 c-1.57-8.76-15.52-9.04-14.06,4.95c1.46,13.99,10.58,21.42,16.95,24.77c10.36,5.44,29.62,2.34,29.62,2.34L182.97,706.37z"></path> </defs> <clipPath id="SVGID_14_"> <use xlink:href="#SVGID_13_" style="overflow:visible;"></use> </clipPath> <path class="st85" d="M182.97,706.37c0,0-5.27,1.64-10.46-0.21c-5.2-1.85-18.94-12.6-20.51-21.35 c-1.57-8.76-15.52-9.04-14.06,4.95c1.46,13.99,10.58,21.42,16.95,24.77c10.36,5.44,29.62,2.34,29.62,2.34L182.97,706.37z"></path> <path class="st86" d="M136.91,697.58c3.42,3.56,10.29,8.93,15.59,5.55c5.3-3.38,2.06-15.66,2.06-15.66l-3.28-10.54l-17.48,1.39 L136.91,697.58z"></path> <path class="st87" d="M173.39,705.3c0,0,3.38,5.3,3.31,8.79c-0.07,3.49-1.85,5.2-1.85,5.2l12.21,0.25l0.18-8.72l-10.36-5.44 L173.39,705.3z"></path> </g> <g> <defs> <path id="SVGID_15_" d="M270.15,752.62c0,0-31.43,1.11-34.88-0.7c-3.45-1.81-31.69-29.43-31.69-29.43s-11.6,12.85-28.19,13.39 c0,0,2.62,5.24,3.35,7.05c2.49,6.16,0.68,9.61-2.84,11.28c-3.52,1.67-8.72-0.18-11.28-2.84c-4.36-4.54-11.86-17.69-11.86-17.69 s-2.14-8.92,2.84-11.28c3.52-1.67,7.83,1.03,7.83,1.03c-0.21,0.05,6.29,0.9,13.13-2.35c3.52-1.67,6.23-5.98,6.23-5.98 s-11.93-14.2-10.01-22.88s19.57-18.8,24.8-18.69s37.38,6.86,37.38,6.86s8,13.02,10.18,14.16c3.45,1.81,6.98-3.58,12.31-4.99 c12.28-3.24,12.03,8.97,8.47,12.38c-1.78,1.71-14.2,11.93-20.29,10.93c-4.39-0.72-12.96-6.37-14.6-11.64 c0,0-1.1,11.32-7.29,15.56l19.69,18.72l17.97,0.36c3.14,0.06,6.26,0.93,8.79,2.77c3.26,2.38,5.76,6.51,0.83,13.12"></path> </defs> <clipPath id="SVGID_16_"> <use xlink:href="#SVGID_15_" style="overflow:visible;"></use> </clipPath> <path class="st88" d="M271.02,752.63c0,0-30.58,2-34.03,0.19c-3.45-1.81-33.43-29.46-33.43-29.46s-5.53,14.72-22.12,15.26 c0,0,0.91,3.46,1.64,5.27c2.49,6.16-3.68,9.52-7.21,11.2c-3.52,1.67-8.72-0.18-11.28-2.84c-4.36-4.54-11.86-17.69-11.86-17.69 s-2.14-8.92,2.84-11.28c3.52-1.67,7.83,1.03,7.83,1.03c-0.21,0.05,6.29,0.9,13.13-2.35c3.52-1.67,6.23-5.98,6.23-5.98 s-11.93-14.2-10.01-22.88s19.57-18.8,24.8-18.69s37.38,6.86,37.38,6.86s8,13.02,10.18,14.16c3.45,1.81,6.98-3.58,12.31-4.99 c12.28-3.24,12.03,8.97,8.47,12.38c-1.78,1.71-14.2,11.93-20.29,10.93c-4.39-0.72-12.94-7.24-14.58-12.51 c0,0-3.68,9.52-9.87,13.76l22.25,21.39l17.97,0.36c3.14,0.06,6.26,0.93,8.79,2.77C273.45,741.89,275.95,746.02,271.02,752.63"></path> <path class="st89" d="M201.01,677.07c0,0,2.61,1.9,3.38,5.3c1.6,7.01-14.23,13.67-14.23,13.67l5.84,9.15 c2.64,3.23,0.79,8.43-2.74,10.1c-4.98,2.37-10.46-0.21-10.46-0.21"></path> <path class="st90" d="M229.28,702.94c0,0,0.66-2.2,0.11-5.23c-0.43-2.38-1.84-5.48-3.35-7.05c-3.42-3.56-12.14-3.73-15.7-0.32 c-3.56,3.42-3.66,8.65-1.99,12.17c1.67,3.52,12.75,11.77,12.75,11.77l2.77-2.74l3.59-5.16L229.28,702.94z"></path> <line class="st89" x1="197.6" y1="716.26" x2="236.12" y2="752.8"></line> <line class="st91" x1="209.85" y1="704.96" x2="220.99" y2="714.78"></line> <path class="st91" d="M221.2,714.12c0,0,7.08-5.09,9-13.78"></path> </g> <path class="st92" d="M196.77,670.87l1.67,3.52c0,0,1.8,4.74,8.58,7.15c5.2,1.85,13.88,3.77,20.89,2.17 c7.01-1.6,12.28-3.24,12.28-3.24L196.77,670.87z"></path> <g> <defs> <path id="SVGID_17_" d="M182.23,613c0,0-17.97,25.81-6.11,43.5c11.86,17.69,37.91,23.45,37.91,23.45s27.73,9.28,50.62-0.72 c22.88-10.01,26.58-20.4,26.83-32.61c0.25-12.21-17.09-17.79-17.09-17.79s0.18-8.72-4.88-17.55 c-5.06-8.83-15.42-14.27-15.42-14.27l-3.07-21l-14.27,15.42c0,0-24.38-2.24-31.47,2.86l-24.1-16.19L182.23,613z"></path> </defs> <clipPath id="SVGID_18_"> <use xlink:href="#SVGID_17_" style="overflow:visible;"></use> </clipPath> <path class="st93" d="M182.23,613c0,0-18,27.55-6.15,45.24c11.86,17.69,37.95,21.7,37.95,21.7s24.24,9.21,47.13-0.79 c22.88-10.01,30.04-18.48,30.32-32.54c0.25-12.21-17.09-17.79-17.09-17.79s0.18-8.72-4.88-17.55 c-5.06-8.83-15.42-14.27-15.42-14.27l-3.07-21l-14.27,15.42c0,0-24.38-2.24-31.47,2.86l-24.1-16.19L182.23,613z"></path> <path class="st94" d="M244.53,638.68c-3.69-1.26-21.03-3.73-33.14-0.67c-4.33,1.09-21.04,4.81-16.19,24.1 c4.85,19.29,43.28,21.75,44.93,21.84c6.2,0.35,34.31,1.92,49.22-18.2c7.23-9.76,13.32-25.3,5.9-33.03 c-8.54-8.9-40.12-0.81-45.49,6.06c-0.12,0.16-0.65,1.2-1.78,1.71C246.51,641.17,244.96,638.83,244.53,638.68z"></path> </g> <ellipse transform="matrix(0.9746 -0.2238 0.2238 0.9746 -133.2625 74.0426)" cx="259.96" cy="624.83" rx="2.53" ry="4.32"></ellipse> <ellipse transform="matrix(0.9746 -0.2238 0.2238 0.9746 -135.1399 65.5307)" cx="221.48" cy="628.85" rx="2.62" ry="4.74"></ellipse> <path class="st95" d="M236.7,637.65c0,0-18.08-2.46-27.05,0.33c-7.9,2.46-14.02,8.45-15.07,14.53 c-1.05,6.08-0.34,13.95,6.06,18.44"></path> <path d="M237.66,633.31c-1.25,0.39-5.27,1.64-0.11,5.23c3.44,2.39,6.78,4.93,9.23,6.49c0.68,0.43,1.54,0.41,2.18-0.07 c2.18-1.61,7.13-6.26,6.1-9.56C253.73,631.11,242.93,631.67,237.66,633.31z"></path> <line class="st96" x1="287.24" y1="640.42" x2="305.72" y2="632.94"></line> <line class="st96" x1="287.94" y1="652.65" x2="304.4" y2="654.72"></line> <line class="st96" x1="159.67" y1="650.06" x2="177.15" y2="648.67"></line> <line class="st96" x1="156.61" y1="629.06" x2="177.33" y2="639.95"></line> <path class="st96" d="M220.82,646.06c0,0-0.83,7.45,4.54,10.27c5.37,2.82,12.21,0.25,13.6-1.08"></path> <polyline class="st97" points="188.78,591.32 191.95,607.09 185.25,593 186.68,608.73 "></polyline> <polyline class="st97" points="249.52,586.22 244.92,592.91 251.37,587.75 247.84,594.8 "></polyline> <path class="st98" d="M203.85,721.94c0,0-3.91,4.04-7.41,6.55c-3.5,2.51-8.09,4.45-8.09,4.45s-7.73,3.05-12.96,2.94"></path> </g> <g> <g> <defs> <path id="SVGID_19_" d="M752.6,191.53c0,0,5.03,1.57,10-0.2c4.96-1.77,18.09-12.03,19.59-20.4c1.5-8.36,14.83-8.63,13.43,4.73 c-1.4,13.36-10.11,20.47-16.19,23.66c-9.9,5.2-28.29,2.24-28.29,2.24L752.6,191.53z"></path> </defs> <clipPath id="SVGID_20_"> <use xlink:href="#SVGID_19_" style="overflow:visible;"></use> </clipPath> <path class="st99" d="M752.6,191.53c0,0,5.03,1.57,10-0.2c4.96-1.77,18.09-12.03,19.59-20.4c1.5-8.36,14.83-8.63,13.43,4.73 c-1.4,13.36-10.11,20.47-16.19,23.66c-9.9,5.2-28.29,2.24-28.29,2.24L752.6,191.53z"></path> <path class="st100" d="M796.6,183.15c-3.27,3.4-9.83,8.53-14.89,5.3s-1.97-14.96-1.97-14.96l3.13-10.06l16.69,1.33L796.6,183.15z "></path> <path class="st101" d="M761.74,190.52c0,0-3.23,5.07-3.16,8.4c0.07,3.33,1.77,4.96,1.77,4.96l-11.66,0.24l-0.17-8.33l9.9-5.2 L761.74,190.52z"></path> </g> <g> <defs> <path id="SVGID_21_" d="M669.31,235.72c0,0,30.02,1.06,33.32-0.67c3.3-1.73,30.27-28.11,30.27-28.11s11.08,12.28,26.93,12.79 c0,0-2.5,5-3.2,6.73c-2.38,5.88-0.65,9.18,2.72,10.78s8.33-0.17,10.78-2.72c4.16-4.33,11.33-16.9,11.33-16.9 s2.04-8.52-2.72-10.78c-3.37-1.6-7.48,0.98-7.48,0.98c0.2,0.05-6.01,0.86-12.55-2.25c-3.37-1.6-5.95-5.71-5.95-5.71 s11.39-13.56,9.56-21.86c-1.83-8.3-18.7-17.96-23.7-17.86c-5,0.1-35.7,6.55-35.7,6.55s-7.64,12.43-9.73,13.53 c-3.3,1.73-6.67-3.42-11.76-4.76c-11.73-3.1-11.5,8.57-8.1,11.83c1.7,1.63,13.56,11.39,19.38,10.44 c4.19-0.69,12.38-6.08,13.94-11.12c0,0,1.05,10.81,6.97,14.86l-18.81,17.88l-17.16,0.35c-3,0.06-5.98,0.88-8.4,2.65 c-3.11,2.27-5.51,6.21-0.79,12.54"></path> </defs> <clipPath id="SVGID_22_"> <use xlink:href="#SVGID_21_" style="overflow:visible;"></use> </clipPath> <path class="st102" d="M668.48,235.73c0,0,29.21,1.91,32.51,0.18c3.3-1.73,31.94-28.15,31.94-28.15s5.28,14.06,21.13,14.58 c0,0-0.87,3.31-1.57,5.03c-2.38,5.88,3.52,9.1,6.88,10.7s8.33-0.17,10.78-2.72c4.16-4.33,11.33-16.9,11.33-16.9 s2.04-8.52-2.72-10.78c-3.37-1.6-7.48,0.98-7.48,0.98c0.2,0.05-6.01,0.86-12.55-2.25c-3.37-1.6-5.95-5.71-5.95-5.71 s11.39-13.56,9.56-21.86c-1.83-8.3-18.7-17.96-23.7-17.86c-5,0.1-35.7,6.55-35.7,6.55s-7.64,12.43-9.73,13.53 c-3.3,1.73-6.67-3.42-11.76-4.76c-11.73-3.1-11.5,8.57-8.1,11.83c1.7,1.63,13.56,11.39,19.38,10.44 c4.19-0.69,12.36-6.92,13.93-11.95c0,0,3.52,9.1,9.43,13.14l-21.26,20.43l-17.16,0.35c-3,0.06-5.98,0.88-8.4,2.65 C666.16,225.47,663.77,229.41,668.48,235.73"></path> <path class="st103" d="M735.36,163.55c0,0-2.49,1.82-3.23,5.07c-1.53,6.7,13.6,13.06,13.6,13.06l-5.58,8.74 c-2.52,3.09-0.75,8.05,2.62,9.65c4.76,2.26,10-0.2,10-0.2"></path> <path class="st104" d="M708.36,188.26c0,0-0.63-2.11-0.1-5c0.41-2.28,1.76-5.23,3.2-6.73c3.27-3.4,11.6-3.57,15-0.3 c3.4,3.27,3.5,8.26,1.9,11.63c-1.6,3.37-12.18,11.25-12.18,11.25l-2.65-2.61l-3.43-4.93L708.36,188.26z"></path> <line class="st103" x1="738.62" y1="200.98" x2="701.82" y2="235.89"></line> <line class="st105" x1="726.92" y1="190.19" x2="716.27" y2="199.57"></line> <path class="st105" d="M716.08,198.94c0,0-6.77-4.86-8.6-13.16"></path> </g> <path class="st92" d="M739.41,157.63l-1.6,3.37c0,0-1.72,4.53-8.2,6.83c-4.96,1.77-13.26,3.6-19.96,2.07 c-6.7-1.53-11.73-3.1-11.73-3.1L739.41,157.63z"></path> <g> <defs> <path id="SVGID_23_" d="M753.3,102.35c0,0,17.17,24.66,5.84,41.55c-11.33,16.9-36.22,22.4-36.22,22.4s-26.49,8.87-48.35-0.69 c-21.86-9.56-25.4-19.49-25.63-31.15s16.33-17,16.33-17s-0.17-8.33,4.66-16.76s14.73-13.63,14.73-13.63L687.58,67l13.63,14.73 c0,0,23.29-2.14,30.06,2.73l23.02-15.47L753.3,102.35z"></path> </defs> <clipPath id="SVGID_24_"> <use xlink:href="#SVGID_23_" style="overflow:visible;"></use> </clipPath> <path class="st106" d="M753.3,102.35c0,0,17.2,26.32,5.87,43.22c-11.33,16.9-36.25,20.73-36.25,20.73s-23.16,8.8-45.02-0.76 c-21.86-9.56-28.69-17.65-28.96-31.09c-0.24-11.66,16.33-17,16.33-17s-0.17-8.33,4.66-16.76s14.73-13.63,14.73-13.63L687.58,67 l13.63,14.73c0,0,23.29-2.14,30.06,2.73l23.02-15.47L753.3,102.35z"></path> <path class="st107" d="M693.79,126.88c3.53-1.21,20.09-3.56,31.66-0.64c4.14,1.05,20.09,4.6,15.47,23.02 c-4.63,18.43-41.35,20.78-42.92,20.87c-5.92,0.33-32.77,1.83-47.02-17.39c-6.91-9.32-12.72-24.16-5.64-31.56 c8.15-8.5,38.32-0.77,43.45,5.79c0.12,0.15,0.62,1.14,1.7,1.63C691.89,129.25,693.37,127.02,693.79,126.88z"></path> </g> <ellipse transform="matrix(0.2238 -0.9746 0.9746 0.2238 416.29 750.0217)" cx="679.04" cy="113.64" rx="4.12" ry="2.41"></ellipse> <ellipse transform="matrix(0.2238 -0.9746 0.9746 0.2238 441.0764 788.8356)" cx="715.81" cy="117.49" rx="4.53" ry="2.5"></ellipse> <path class="st95" d="M701.27,125.9c0,0,17.27-2.35,25.84,0.31c7.55,2.35,13.39,8.07,14.39,13.88c1,5.81,0.32,13.32-5.79,17.61"></path> <path d="M700.35,121.75c1.19,0.37,5.03,1.57,0.1,5c-3.28,2.29-6.48,4.71-8.82,6.2c-0.65,0.41-1.47,0.39-2.09-0.07 c-2.08-1.54-6.81-5.98-5.82-9.13C685,119.65,695.32,120.18,700.35,121.75z"></path> <line class="st96" x1="652.98" y1="128.54" x2="635.34" y2="121.39"></line> <line class="st96" x1="652.32" y1="140.22" x2="636.59" y2="142.2"></line> <line class="st96" x1="774.85" y1="137.75" x2="758.15" y2="136.42"></line> <line class="st96" x1="777.78" y1="117.69" x2="757.98" y2="128.09"></line> <path class="st96" d="M716.44,133.92c0,0,0.79,7.12-4.34,9.81c-5.13,2.7-11.66,0.24-12.99-1.03"></path> <polyline class="st97" points="747.05,81.64 744.02,96.7 750.41,83.24 749.05,98.26 "></polyline> <polyline class="st97" points="689.02,76.76 693.41,83.15 687.25,78.22 690.63,84.96 "></polyline> <path class="st98" d="M732.65,206.41c0,0,3.73,3.86,7.08,6.26c3.34,2.4,7.73,4.25,7.73,4.25s7.38,2.91,12.38,2.81"></path> </g> <path class="st54" d="M787,270H332c-3.3,0-6-2.7-6-6l0,0c0-3.3,2.7-6,6-6h455c3.3,0,6,2.7,6,6l0,0C793,267.3,790.3,270,787,270z"></path> </g> </svg> 